<svg width="166" height="137" viewBox="0 0 166 137" fill="none" xmlns="http://www.w3.org/2000/svg">
<mask id="path-1-inside-1_104_11" fill="white">
<path d="M81.5324 0.967606C82.3099 -0.322534 84.1807 -0.322536 84.9582 0.967603L164.2 132.445C165.004 133.778 164.044 135.478 162.487 135.478H4.0031C2.44673 135.478 1.48677 133.778 2.29016 132.445L81.5324 0.967606Z"/>
</mask>
<path d="M81.5324 0.967606C82.3099 -0.322534 84.1807 -0.322536 84.9582 0.967603L164.2 132.445C165.004 133.778 164.044 135.478 162.487 135.478H4.0031C2.44673 135.478 1.48677 133.778 2.29016 132.445L81.5324 0.967606Z" fill="black"/>
<path d="M2.29016 132.445L7.42898 135.543L2.29016 132.445ZM79.8194 4.06479L159.062 135.543L169.339 129.348L90.097 -2.12958L79.8194 4.06479ZM162.487 129.478H4.0031V141.478H162.487V129.478ZM7.42898 135.543L86.6712 4.06479L76.3935 -2.12958L-2.84865 129.348L7.42898 135.543ZM4.0031 129.478C7.11585 129.478 9.03575 132.877 7.42898 135.543L-2.84865 129.348C-6.06221 134.68 -2.22238 141.478 4.0031 141.478V129.478ZM159.062 135.543C157.455 132.877 159.375 129.478 162.487 129.478V141.478C168.713 141.478 172.553 134.68 169.339 129.348L159.062 135.543ZM90.097 -2.12958C86.9868 -7.29015 79.5038 -7.29013 76.3935 -2.12958L86.6712 4.06479C85.116 6.64506 81.3746 6.64508 79.8194 4.06479L90.097 -2.12958Z" fill="white" mask="url(#path-1-inside-1_104_11)"/>
<path d="M83.2462 0.453491V83.6796M83.2462 83.6796L2.09985 134.508M83.2462 83.6796L164.013 134.314" stroke="white" stroke-width="5"/>
</svg>
